<svg width="1024" height="1024" viewBox="0 0 1024 1024" fill="none" xmlns="http://www.w3.org/2000/svg">
<rect width="1024" height="1024" fill="#FFECCE"/>
<path d="M399.247 324.382V373.396L382.674 386.09L348.181 356.404C353.654 346.95 355.859 335.956 354.453 325.123L353.978 321.461C353.975 321.441 353.983 321.421 353.997 321.408L378.436 299.413L399.247 324.382Z" fill="#EF8018" stroke="black" stroke-width="8"/>
<mask id="path-2-inside-1_32_28" fill="white">
<path d="M199.617 677.677C219.594 672.986 237.121 661.627 248.99 645.68C260.86 629.734 266.278 610.266 264.253 590.84C262.228 571.414 252.895 553.33 237.963 539.897C223.03 526.465 203.497 518.582 182.939 517.692L181.401 549.66C193.86 550.199 205.697 554.976 214.746 563.117C223.795 571.257 229.451 582.217 230.679 593.989C231.906 605.762 228.622 617.559 221.429 627.223C214.236 636.887 203.614 643.771 191.508 646.614L199.617 677.677Z"/>
</mask>
<path d="M199.617 677.677C219.594 672.986 237.121 661.627 248.99 645.68C260.86 629.734 266.278 610.266 264.253 590.84C262.228 571.414 252.895 553.33 237.963 539.897C223.03 526.465 203.497 518.582 182.939 517.692L181.401 549.66C193.86 550.199 205.697 554.976 214.746 563.117C223.795 571.257 229.451 582.217 230.679 593.989C231.906 605.762 228.622 617.559 221.429 627.223C214.236 636.887 203.614 643.771 191.508 646.614L199.617 677.677Z" fill="#F08019" stroke="black" stroke-width="16" mask="url(#path-2-inside-1_32_28)"/>
<mask id="path-3-inside-2_32_28" fill="white">
<path fill-rule="evenodd" clip-rule="evenodd" d="M777.364 359.179C797.338 354.796 813.406 354.99 831.791 363.943C850.657 373.131 867.422 395.018 866.554 415.984L864.174 473.416C861.629 534.854 852.831 595.873 837.918 655.528C833.298 674.01 818.717 688.349 800.16 692.658L683.615 719.725L502.777 756.651L260.93 796.233C228.586 801.527 198.629 778.035 196.058 745.362L187.047 630.857C193.891 639.494 203.37 644.841 213.843 644.841C234.715 644.841 251.634 623.608 251.634 597.417C251.634 571.225 234.715 549.993 213.843 549.993C200.699 549.993 189.122 558.414 182.351 571.192L176.052 491.15L777.364 359.179Z"/>
</mask>
<path fill-rule="evenodd" clip-rule="evenodd" d="M777.364 359.179C797.338 354.796 813.406 354.99 831.791 363.943C850.657 373.131 867.422 395.018 866.554 415.984L864.174 473.416C861.629 534.854 852.831 595.873 837.918 655.528C833.298 674.01 818.717 688.349 800.16 692.658L683.615 719.725L502.777 756.651L260.93 796.233C228.586 801.527 198.629 778.035 196.058 745.362L187.047 630.857C193.891 639.494 203.37 644.841 213.843 644.841C234.715 644.841 251.634 623.608 251.634 597.417C251.634 571.225 234.715 549.993 213.843 549.993C200.699 549.993 189.122 558.414 182.351 571.192L176.052 491.15L777.364 359.179Z" fill="#FFCC40"/>
<path d="M831.791 363.943L828.289 371.136L828.289 371.136L831.791 363.943ZM777.364 359.179L775.649 351.365L775.649 351.365L777.364 359.179ZM866.554 415.984L858.561 415.653L858.561 415.653L866.554 415.984ZM864.174 473.416L872.167 473.747L872.167 473.747L864.174 473.416ZM837.918 655.528L845.679 657.469L845.679 657.469L837.918 655.528ZM800.16 692.658L801.97 700.451L801.97 700.451L800.16 692.658ZM683.615 719.725L685.216 727.563L685.321 727.541L685.425 727.517L683.615 719.725ZM502.777 756.651L504.069 764.546L504.224 764.521L504.377 764.489L502.777 756.651ZM260.93 796.233L259.638 788.338L259.638 788.338L260.93 796.233ZM196.058 745.362L204.033 744.734L204.033 744.734L196.058 745.362ZM187.047 630.857L193.317 625.889L177.012 605.315L179.072 631.485L187.047 630.857ZM182.351 571.192L174.376 571.82L176.535 599.255L189.42 574.938L182.351 571.192ZM176.052 491.15L174.337 483.336L167.53 484.83L168.077 491.777L176.052 491.15ZM835.294 356.751C814.833 346.787 796.813 346.721 775.649 351.365L779.079 366.993C797.864 362.871 811.98 363.194 828.289 371.136L835.294 356.751ZM874.547 416.315C875.073 403.629 870.281 391.223 863.136 380.972C855.975 370.698 846.045 361.987 835.294 356.751L828.289 371.136C836.403 375.088 844.289 381.913 850.01 390.121C855.747 398.353 858.904 407.373 858.561 415.653L874.547 416.315ZM872.167 473.747L874.547 416.315L858.561 415.653L856.181 473.085L872.167 473.747ZM845.679 657.469C860.724 597.286 869.599 535.728 872.167 473.747L856.181 473.085C853.658 533.98 844.938 594.46 830.157 653.588L845.679 657.469ZM801.97 700.451C823.452 695.462 840.331 678.864 845.679 657.469L830.157 653.588C826.265 669.157 813.982 681.235 798.35 684.866L801.97 700.451ZM685.425 727.517L801.97 700.451L798.35 684.866L681.805 711.932L685.425 727.517ZM504.377 764.489L685.216 727.563L682.015 711.886L501.176 748.813L504.377 764.489ZM262.223 804.128L504.069 764.546L501.485 748.756L259.638 788.338L262.223 804.128ZM188.083 745.99C191.021 783.331 225.258 810.178 262.223 804.128L259.638 788.338C231.915 792.876 206.237 772.74 204.033 744.734L188.083 745.99ZM179.072 631.485L188.083 745.99L204.033 744.734L195.022 630.23L179.072 631.485ZM213.843 636.841C206.259 636.841 198.945 632.99 193.317 625.889L180.777 635.826C188.838 645.998 200.48 652.841 213.843 652.841V636.841ZM243.634 597.417C243.634 620.98 228.697 636.841 213.843 636.841V652.841C240.732 652.841 259.634 626.237 259.634 597.417H243.634ZM213.843 557.993C228.697 557.993 243.634 573.854 243.634 597.417H259.634C259.634 568.597 240.732 541.993 213.843 541.993V557.993ZM189.42 574.938C195.175 564.077 204.378 557.993 213.843 557.993V541.993C197.02 541.993 183.069 552.752 175.282 567.446L189.42 574.938ZM168.077 491.777L174.376 571.82L190.327 570.564L184.028 490.522L168.077 491.777ZM775.649 351.365L174.337 483.336L177.767 498.964L779.079 366.993L775.649 351.365Z" fill="black" mask="url(#path-3-inside-2_32_28)"/>
<mask id="path-5-inside-3_32_28" fill="white">
<path fill-rule="evenodd" clip-rule="evenodd" d="M185.259 500.622C177.379 502.402 172.128 492.709 177.923 487.08L319.377 349.667C324.554 353.145 331.795 355.306 339.808 355.306C355.546 355.306 368.304 346.971 368.304 336.69C368.304 328.879 360.942 322.192 350.504 319.429L449.147 223.604C462.002 211.117 480.056 205.536 497.714 208.591L547.182 217.15C609.926 228.005 671.431 245.083 730.789 268.131L751.544 278.139C799.811 301.412 838.49 341.44 860.388 390.346C860.996 391.705 861.073 393.762 859.717 393.148C818.484 374.471 771.011 368.312 726.857 378.286L185.259 500.622Z"/>
</mask>
<path fill-rule="evenodd" clip-rule="evenodd" d="M185.259 500.622C177.379 502.402 172.128 492.709 177.923 487.08L319.377 349.667C324.554 353.145 331.795 355.306 339.808 355.306C355.546 355.306 368.304 346.971 368.304 336.69C368.304 328.879 360.942 322.192 350.504 319.429L449.147 223.604C462.002 211.117 480.056 205.536 497.714 208.591L547.182 217.15C609.926 228.005 671.431 245.083 730.789 268.131L751.544 278.139C799.811 301.412 838.49 341.44 860.388 390.346C860.996 391.705 861.073 393.762 859.717 393.148C818.484 374.471 771.011 368.312 726.857 378.286L185.259 500.622Z" fill="#FFB84A"/>
<path d="M177.923 487.08L183.497 492.819L183.497 492.819L177.923 487.08ZM185.259 500.622L187.022 508.425L187.022 508.425L185.259 500.622ZM319.377 349.667L323.839 343.026L318.455 339.409L313.803 343.929L319.377 349.667ZM350.504 319.429L344.93 313.691L334.787 323.543L348.457 327.162L350.504 319.429ZM449.147 223.604L443.573 217.865L443.573 217.865L449.147 223.604ZM497.714 208.591L499.078 200.708L499.078 200.708L497.714 208.591ZM547.182 217.15L545.818 225.032L545.818 225.032L547.182 217.15ZM730.789 268.131L734.264 260.925L733.979 260.787L733.685 260.673L730.789 268.131ZM751.544 278.139L755.019 270.933L755.019 270.933L751.544 278.139ZM860.388 390.346L853.086 393.615L853.086 393.616L860.388 390.346ZM859.717 393.148L856.417 400.436L856.417 400.436L859.717 393.148ZM726.857 378.286L725.095 370.482L725.095 370.482L726.857 378.286ZM172.348 481.342C160.759 492.6 171.262 511.985 187.022 508.425L183.497 492.819C183.464 492.826 183.439 492.83 183.42 492.833C183.402 492.835 183.39 492.836 183.383 492.837C183.376 492.837 183.374 492.837 183.376 492.837C183.378 492.837 183.383 492.837 183.391 492.838C183.399 492.839 183.409 492.841 183.42 492.843C183.431 492.845 183.443 492.848 183.455 492.852C183.479 492.859 183.501 492.868 183.519 492.877C183.554 492.894 183.563 492.906 183.552 492.896C183.547 492.89 183.538 492.881 183.528 492.867C183.518 492.853 183.507 492.837 183.497 492.819C183.487 492.8 183.479 492.782 183.473 492.766C183.467 492.75 183.464 492.737 183.463 492.73C183.46 492.715 183.465 492.729 183.46 492.769C183.458 492.788 183.453 492.811 183.446 492.836C183.442 492.848 183.438 492.859 183.434 492.87C183.43 492.88 183.426 492.889 183.423 492.896C183.419 492.904 183.416 492.908 183.415 492.91C183.414 492.912 183.415 492.91 183.419 492.904C183.423 492.899 183.431 492.889 183.443 492.875C183.455 492.861 183.473 492.842 183.497 492.819L172.348 481.342ZM313.803 343.929L172.348 481.342L183.497 492.819L324.951 355.405L313.803 343.929ZM339.808 347.306C333.142 347.306 327.509 345.492 323.839 343.026L314.916 356.307C321.6 360.798 330.449 363.306 339.808 363.306V347.306ZM360.304 336.69C360.304 338.247 359.331 340.707 355.582 343.156C351.904 345.559 346.35 347.306 339.808 347.306V363.306C349.004 363.306 357.697 360.886 364.333 356.551C370.897 352.263 376.304 345.414 376.304 336.69H360.304ZM348.457 327.162C357.583 329.579 360.304 334.368 360.304 336.69H376.304C376.304 323.391 364.3 314.806 352.552 311.695L348.457 327.162ZM443.573 217.865L344.93 313.691L356.079 325.167L454.722 229.342L443.573 217.865ZM499.078 200.708C478.897 197.216 458.264 203.594 443.573 217.865L454.722 229.342C465.74 218.639 481.215 213.855 496.351 216.474L499.078 200.708ZM548.546 209.267L499.078 200.708L496.351 216.474L545.818 225.032L548.546 209.267ZM733.685 260.673C673.832 237.433 611.813 220.213 548.546 209.267L545.818 225.032C608.038 235.797 669.031 252.733 727.894 275.588L733.685 260.673ZM755.019 270.933L734.264 260.925L727.315 275.337L748.07 285.345L755.019 270.933ZM867.689 387.077C845.028 336.464 805.001 295.034 755.019 270.933L748.07 285.345C794.62 307.791 831.953 346.416 853.086 393.615L867.689 387.077ZM856.417 400.436C858.13 401.211 861.778 402.134 865.216 399.608C868.067 397.513 868.601 394.518 868.73 393.455C869.029 391.003 868.398 388.66 867.689 387.077L853.086 393.616C852.985 393.391 852.697 392.756 852.848 391.518C852.903 391.064 853.24 388.552 855.743 386.713C858.834 384.443 861.983 385.392 863.018 385.861L856.417 400.436ZM728.62 386.089C770.919 376.535 816.618 382.409 856.417 400.436L863.018 385.861C820.35 366.534 771.103 360.09 725.095 370.482L728.62 386.089ZM187.022 508.425L728.62 386.089L725.095 370.482L183.497 492.819L187.022 508.425Z" fill="black" mask="url(#path-5-inside-3_32_28)"/>
<path d="M521.499 564.872C521.499 589.425 505.283 607.932 486.844 607.932C468.406 607.932 452.19 589.425 452.19 564.872C452.19 540.319 468.406 521.812 486.844 521.812C505.283 521.812 521.499 540.319 521.499 564.872Z" fill="#F38118" stroke="black" stroke-width="8"/>
<path d="M384.891 687.123C384.891 708.663 369.445 725.309 351.342 725.309C333.238 725.309 317.792 708.663 317.792 687.123C317.792 665.583 333.238 648.938 351.342 648.938C369.445 648.938 384.891 665.583 384.891 687.123Z" fill="#F38118" stroke="black" stroke-width="8"/>
<path d="M762.886 471.785C762.886 483.375 754.299 492.203 744.378 492.203C734.457 492.203 725.871 483.375 725.871 471.785C725.871 460.195 734.457 451.366 744.378 451.366C754.299 451.366 762.886 460.195 762.886 471.785Z" fill="#F38118" stroke="black" stroke-width="8"/>
<path d="M772.015 602.608C772.015 617.397 760.091 629.353 745.423 629.353C730.755 629.353 718.83 617.397 718.83 602.608C718.83 587.819 730.755 575.864 745.423 575.864C760.091 575.864 772.015 587.819 772.015 602.608Z" fill="#F38118" stroke="black" stroke-width="8"/>
<path d="M566.796 329.115C567.372 333.3 564.938 338.324 558.717 343.033C552.612 347.654 543.538 351.368 532.933 352.827C522.327 354.286 512.588 353.16 505.462 350.359C498.2 347.504 494.5 343.324 493.924 339.139C493.349 334.954 495.782 329.93 502.004 325.221C508.109 320.6 517.182 316.886 527.788 315.427C538.394 313.968 548.133 315.094 555.259 317.895C562.521 320.75 566.221 324.93 566.796 329.115Z" fill="#F38118" stroke="black" stroke-width="8"/>
<path d="M506.487 265.917C506.533 266.25 506.363 267.61 503.706 269.468C501.245 271.189 497.442 272.686 492.879 273.314C488.317 273.941 484.251 273.527 481.417 272.534C478.357 271.463 477.825 270.199 477.78 269.866C477.734 269.533 477.904 268.172 480.561 266.314C483.022 264.593 486.825 263.096 491.388 262.468C495.95 261.841 500.016 262.256 502.85 263.248C505.91 264.32 506.441 265.584 506.487 265.917Z" fill="#F38118" stroke="black" stroke-width="8"/>
<path d="M423.541 392.375C423.611 392.886 423.374 394.217 421.114 395.928C418.971 397.551 415.623 398.96 411.567 399.517C407.512 400.075 403.908 399.623 401.406 398.639C398.767 397.602 398.18 396.384 398.11 395.873C398.04 395.363 398.276 394.031 400.536 392.32C402.68 390.698 406.028 389.289 410.083 388.731C414.139 388.173 417.743 388.626 420.245 389.609C422.883 390.646 423.47 391.864 423.541 392.375Z" fill="#F38118" stroke="black" stroke-width="8"/>
<path d="M691.067 306.82C691.122 307.226 690.949 308.453 688.801 310.078C686.77 311.615 683.585 312.959 679.716 313.491C675.847 314.023 672.417 313.59 670.047 312.658C667.54 311.673 667.042 310.539 666.986 310.132C666.93 309.726 667.104 308.5 669.251 306.874C671.282 305.337 674.467 303.994 678.336 303.462C682.206 302.929 685.635 303.363 688.006 304.294C690.512 305.28 691.011 306.414 691.067 306.82Z" fill="#F38118" stroke="black" stroke-width="8"/>
<path d="M603.82 458.049L604.026 458.285L604.265 458.487C610.436 463.683 616.698 466.042 623.201 466.518C629.558 466.984 635.916 465.63 642.241 463.848C657.356 459.591 669.404 448.484 676.639 435C683.87 421.521 686.487 405.315 682.319 390.52C680.258 383.203 677.123 377.457 672.921 373.183C668.697 368.888 663.589 366.278 657.917 364.95C646.79 362.345 633.36 364.651 619.393 368.585C612.486 370.531 606.835 372.218 602.483 374.098C598.134 375.977 594.543 378.267 592.28 381.74C589.971 385.283 589.451 389.417 589.858 394.08C590.259 398.685 591.611 404.28 593.536 411.112C594.441 414.326 594.6 417.477 594.486 420.844C594.435 422.344 594.333 423.838 594.225 425.415C594.21 425.627 594.196 425.839 594.181 426.054C594.06 427.84 593.941 429.724 593.915 431.652C593.807 439.667 595.331 448.263 603.82 458.049Z" fill="#F38118" stroke="black" stroke-width="8"/>
<path d="M303.613 496.362L303.818 496.599L304.058 496.801C307.541 499.734 311.154 501.115 314.925 501.391C318.551 501.657 322.096 500.88 325.407 499.947C333.792 497.585 340.388 491.455 344.319 484.128C348.248 476.806 349.709 467.938 347.405 459.759C346.276 455.75 344.522 452.475 342.077 449.989C339.611 447.481 336.637 445.974 333.403 445.217C327.153 443.753 319.816 445.074 312.579 447.112C309.035 448.11 305.999 449.011 303.619 450.04C301.241 451.067 298.977 452.44 297.504 454.7C295.986 457.03 295.719 459.657 295.949 462.288C296.173 464.86 296.917 467.9 297.91 471.424C298.301 472.811 298.384 474.213 298.328 475.849C298.303 476.587 298.253 477.321 298.197 478.138C298.19 478.247 298.182 478.357 298.174 478.469C298.112 479.391 298.047 480.408 298.033 481.46C297.972 485.966 298.865 490.89 303.613 496.362Z" fill="#F38118" stroke="black" stroke-width="8"/>
</svg>
